<?xml version="1.0" encoding="UTF-8" standalone="no"?>
<!-- Created with Inkscape (http://www.inkscape.org/) -->

<svg
   xmlns:dc="http://purl.org/dc/elements/1.1/"
   xmlns:cc="http://creativecommons.org/ns#"
   xmlns:rdf="http://www.w3.org/1999/02/22-rdf-syntax-ns#"
   xmlns:svg="http://www.w3.org/2000/svg"
   xmlns="http://www.w3.org/2000/svg"
   xmlns:sodipodi="http://sodipodi.sourceforge.net/DTD/sodipodi-0.dtd"
   xmlns:inkscape="http://www.inkscape.org/namespaces/inkscape"
   width="768.05988"
   height="256.57544"
   id="svg2"
   version="1.1"
   inkscape:version="0.92.1 r15371"
   sodipodi:docname="Logo.svg"
   inkscape:export-filename="D:\APCS_Computer Science\Collabs\Logo.png"
   inkscape:export-xdpi="99.900444"
   inkscape:export-ydpi="99.900444">
  <defs
     id="defs4" />
  <sodipodi:namedview
     id="base"
     pagecolor="#ffffff"
     bordercolor="#666666"
     borderopacity="1.0"
     inkscape:pageopacity="0.0"
     inkscape:pageshadow="2"
     inkscape:zoom="0.7071068"
     inkscape:cx="315.90679"
     inkscape:cy="81.11099"
     inkscape:document-units="px"
     inkscape:current-layer="layer1"
     showgrid="false"
     fit-margin-top="0"
     fit-margin-left="0"
     fit-margin-right="0"
     fit-margin-bottom="0"
     inkscape:window-width="1920"
     inkscape:window-height="1017"
     inkscape:window-x="-8"
     inkscape:window-y="-8"
     inkscape:window-maximized="1" />
  <metadata
     id="metadata7">
    <rdf:RDF>
      <cc:Work
         rdf:about="">
        <dc:format>image/svg+xml</dc:format>
        <dc:type
           rdf:resource="http://purl.org/dc/dcmitype/StillImage" />
        <dc:title />
      </cc:Work>
    </rdf:RDF>
  </metadata>
  <g
     inkscape:label="Layer 1"
     inkscape:groupmode="layer"
     id="layer1"
     transform="translate(-18.119789,-481.49213)">
    <g
       id="g4631"
       transform="matrix(2.0989453,0,0,2.0989453,-404.99917,-817.94843)">
      <text
         id="text3360"
         y="685.28088"
         x="202.16617"
         style="font-style:normal;font-variant:normal;font-weight:normal;font-stretch:normal;font-size:12.80000019px;line-height:0%;font-family:VNF-Futura;-inkscape-font-specification:VNF-Futura;letter-spacing:0px;word-spacing:0px;fill:#edc10f;fill-opacity:1;stroke:none;stroke-width:1.06666672"
         xml:space="preserve"><tspan
           style="font-size:44.3401947px;line-height:1.25;font-family:'Lobster 1.4';-inkscape-font-specification:'Lobster 1.4';fill:#edc10f;fill-opacity:1;stroke-width:1.06666672"
           y="685.28088"
           x="202.16617"
           id="tspan3362"
           sodipodi:role="line">daily</tspan></text>
      <text
         id="text3364"
         y="732.63647"
         x="201.57094"
         style="font-style:normal;font-variant:normal;font-weight:normal;font-stretch:normal;font-size:12.80000019px;line-height:0%;font-family:VNF-Futura;-inkscape-font-specification:VNF-Futura;letter-spacing:0px;word-spacing:0px;fill:#e64747;fill-opacity:1;stroke:none;stroke-width:1.06666672"
         xml:space="preserve"><tspan
           style="font-style:normal;font-variant:normal;font-weight:normal;font-stretch:normal;font-size:56.49009705px;line-height:1.25;font-family:EastMarket;-inkscape-font-specification:EastMarket;fill:#e64747;fill-opacity:1;stroke-width:1.06666672"
           y="732.63647"
           x="201.57094"
           id="tspan3366"
           sodipodi:role="line">Vietnamese</tspan></text>
      <path
         inkscape:connector-curvature="0"
         id="path4593"
         d="m 476.57973,619.09215 c -5.01961,4.76962 -13.12504,12.02691 -19.36666,22.23333 -4.93947,8.83269 -6.44127,16.32321 -5.03334,25.36667 1.18605,7.61822 7.18405,20.91478 12.2,27 1.69599,2.05752 3.73334,3.66667 3.73334,3.66667 0,0 -1.11279,-2.45334 -2.83334,-5.53334 -7.35692,-13.16983 -8.54514,-29.09946 -3,-40.43333 2.91749,-5.9631 11.60573,-17.43652 14.06667,-18.63333 2.75449,1.33833 8.54119,10.27138 12.16667,17.43333 2.27178,4.48781 3.55195,9.34507 3.83333,14.5 0.01,0.87688 0.003,1.80723 0,2.86667 -0.002,0.7175 -0.0246,1.32831 -0.0333,1.96666 -0.34661,5.58183 -1.37433,11.38121 -3.93333,17.46667 -1.76156,4.18909 -2.8,6.5 -4.26667,8.7 2.34852,-2.18187 3.70831,-3.83586 5.7,-6.63333 1.359,-1.90881 3.4209,-5.34767 6.03333,-10.26667 3.839,-7.22852 3.9669,-9.63091 4.4,-16.76667 0.0415,-5.37136 0.0364,-2.74981 -0.0667,-4.3 -0.19186,-4.28129 -1.29218,-10.25103 -4.46667,-16.6 -4.41241,-7.49986 -12.8897,-16.84858 -19.13333,-22.03333 z m -47.03333,14.33333 c -2.52567,1.90446 -4.13537,4.90416 -5.03333,6.96667 -1.04258,2.39467 -2.82373,7.32582 -2.1,17.1 0.45102,6.0912 0.96245,9.64328 1.9,12.46667 1.79289,5.39923 4.6597,10.48688 8.83333,14.66666 3.91148,3.91725 5.76106,5.23523 12.1,8.9 0,0 6.93333,3.96667 16.4,5.76667 -4.96661,-2.33553 -7.35893,-4.11841 -10.86667,-6.43333 -5.09996,-3.36572 -12.54823,-9.46326 -16.9,-18.06667 -0.60017,-1.18653 -1.89817,-4.76184 -2.36666,-7.26667 -0.61232,-3.2738 -0.72223,-6.63973 -0.56667,-9.96666 0.17567,-3.75679 0.61732,-7.55513 1.66667,-11.16667 0.40723,-1.40158 1.76666,-4 1.76666,-4 0,0 1.96104,-0.14188 2.93334,-0.13333 1.36936,0.012 3.14311,0.13848 4.1,0.26666 0.95688,0.12818 3.84974,0.74777 5.7,1.46667 0,0 -2.77185,-2.71807 -4.36667,-3.8 -4.0951,-2.77812 -9.95878,-6.08893 -13.2,-6.76667 z m 90.5,0.13334 -1.63333,0.66666 c -1.59841,0.77614 -3.84248,1.29517 -11.23334,6.43334 l -3.63333,3.03333 c 0,0 3.53802,-0.70856 5.03333,-0.93333 1.49532,-0.22478 2.76551,-0.52368 3.76667,-0.66667 1.00117,-0.14298 3.06667,-0.2 3.06667,-0.2 0,0 0.91764,1.49948 2,4.8 0.36178,1.10322 1.29235,5.50803 1.6,8.56667 0.27221,2.70633 0.10357,5.51724 -0.16667,8.13333 -0.38583,3.73485 -0.95022,6.50647 -2.7,10.93333 -1.41434,3.40123 -4.49316,7.53974 -7.1,10.16667 -5.37556,5.41699 -12.32853,9.46581 -14.53333,10.86667 -4.00074,2.30418 -4.28176,2.33305 -6.83334,3.73333 5.9743,-1.58763 12.6347,-3.76387 15.23334,-5.06667 15.04774,-7.54402 18.79333,-16.35232 19.7,-17.86666 2.74209,-4.57993 4.47751,-11.71533 4.46666,-18.76667 -0.009,-5.63449 0.077,-9.70865 -1.96666,-15.3 -0.98223,-2.6872 -2.62141,-6.7331 -5.06667,-8.53333 z m -125.53333,32.76666 c -1.28988,0.0186 -2.241,-0.003 -2.6,0.23334 0.0784,4.55932 4.21236,15.06437 7.43333,19.26666 6.61627,8.632 18.84813,14.62448 34.36667,16.83334 8.18728,1.16534 10.03333,0.63333 13.13333,0.53333 -2.13333,-0.23333 -8.15182,-1.43379 -12.73333,-2.96667 -5.1254,-1.71485 -9.32856,-3.5997 -11.96667,-4.76666 -6.59303,-2.91642 -13.90677,-9.95825 -17.16667,-16.5 -2.54176,-5.10065 -2.1,-6.31668 -2.2,-6.86667 2.13263,-1.22049 7.71589,-2.25617 16.53334,-1.5 -6.2,-3.3 -19.21055,-4.34715 -24.8,-4.26667 z m 162.93333,0.86667 -6.8,0.26667 c -10.51175,0.72714 -15.24761,1.26182 -20.46667,4.36666 3.22965,-0.39002 2.82475,-0.36458 6.53334,-0.46666 4.0728,0.11338 5.96783,0.38746 10.5,1.73333 0.0673,3.16558 -1.19146,5.38291 -2.43334,7.86667 -3.2904,6.5866 -10.96275,13.64544 -17.56666,16.56666 -2.63812,1.16697 -5.62204,2.47432 -10.33334,3.66667 -2.39822,0.60695 -6.53306,1.84008 -13.4,2.73333 3.30427,0.15022 8.37858,-0.24315 11.56667,-0.53333 3.38503,-0.30813 9.86667,-1.8 9.86667,-1.8 17.78969,-4.22994 25.53401,-11.48784 29.66666,-22.53333 1.2251,-3.27439 2.18772,-6.67259 2.36667,-8.3 z m -33.86667,36.6 c -2.96229,-0.006 -5.5446,0.31974 -7.03333,0.53333 -1.98496,0.28482 -2.78554,0.54806 -5.03333,1.1 -4.80109,1.35722 -7.96667,3.83334 -7.96667,3.83334 0,0 4.24631,-0.89606 6.13333,-1.06667 4.36053,-0.39426 10.22036,0.2524 11.46667,0.56667 4.79106,0.8128 8.87498,2.31849 14.7,3.46666 3.04311,0.59983 7.58732,1.22294 11.6,1.26667 l 7.9,-0.13333 c 0,0 -0.25027,0.83076 -3.53333,3.53333 -3.28306,2.70257 -11.25474,5.5066 -17.76667,5.73333 -0.74023,0.0258 -4.68917,0.0542 -7.5,-0.66666 -1.46892,-0.3767 -4.43333,-1.36667 -4.43333,-1.36667 0,0 2.62041,1.72655 3.83333,2.33333 2.83666,1.4191 5.76,1.92431 7.56667,2.13334 12.98249,1.50202 27.30302,-3.90136 32.26666,-13.5 0.88877,-1.71869 1.05593,-2.17525 1.4,-3.33334 0.18616,-0.62657 0.33334,-1.93333 0.33334,-1.93333 0,0 -1.73065,1.12012 -2.8,1.56667 -1.06937,0.44656 -3.0598,0.86278 -6.16667,1 -2.24291,0.0991 -7.65191,0.41061 -15.4,-1.46667 -3.42682,-0.83028 -12.28889,-3.09915 -16.5,-3.46667 -1.05278,-0.0918 -2.07923,-0.13106 -3.06667,-0.13333 z m -14.7,18.23333 c 5.08068,5.3472 12.19713,8.0017 13.03334,8.3 2.78654,0.9941 6.81365,2.01853 8.2,2.13334 -2.14582,1.79684 -5.02164,2.65937 -6.7,2.6 -3.81746,-0.13505 -9.01557,1.10747 -16.63334,-6.2 0,0 -1.83893,-1.43853 -4.26666,-5.23334 0,0 0.025,2.75834 0.0999,3.2 0.67627,5.23914 3.16658,8.85998 8.13334,11.86667 5.58485,3.38086 17.22581,3.44053 22.7,0.2 1.48027,-0.87627 6.70005,-4.52669 8.5,-9.36667 -2.44708,0.0339 -6.34562,0.35509 -9.5,0 -4.64125,-0.52214 -9.23513,-1.62514 -13.66667,-3.1 -3.42512,-1.1399 -7.44626,-3.20455 -9.9,-4.4 z m -93.5,12.6 c 0,0 1.70667,2.30563 4.2,3.8 6.47837,3.8828 17.33177,3.86878 23.93334,0 2.54487,-1.4914 4.6,-3.6 4.6,-3.6 0,0 -8.77947,1.11867 -16.6,1.1 -2.27334,-0.004 -5.97838,-0.12061 -7.63334,-0.26666 -1.65495,-0.14606 -8.5,-1.03334 -8.5,-1.03334 z"
         style="fill:#ff9e9e;fill-opacity:1;stroke-width:1.06666672" />
    </g>
  </g>
</svg>
